<svg id="SvgjsSvg1001" width="24" height="24" xmlns="http://www.w3.org/2000/svg" version="1.1" xmlns:xlink="http://www.w3.org/1999/xlink" xmlns:svgjs="http://svgjs.com/svgjs"><defs id="SvgjsDefs1002"></defs><g id="SvgjsG1008"><svg xmlns="http://www.w3.org/2000/svg" fill="none" viewBox="0 0 24 24" width="24" height="24"><path fill="#075e54" d="M12 2.25C6.61524 2.25 2.25002 6.61522 2.25002 12C2.25002 13.7882 2.73207 15.4658 3.57355 16.9077L2.2451 20.7628C2.19867 21.0323 2.26882 21.3295 2.46969 21.5303C2.67056 21.7312 2.96769 21.8013 3.23719 21.7115L7.09231 20.4265C8.53426 21.268 10.2118 21.75 12 21.75C17.3848 21.75 21.75 17.3848 21.75 12C21.75 6.61522 17.3848 2.25 12 2.25Z" class="color8BC94D svgShape"></path><path fill="#eceff1" d="M7.9337 7.93414C7.19387 8.67396 6.69678 9.56721 6.44451 10.5122 6.33767 10.9124 6.57549 11.3235 6.97569 11.4303 7.37589 11.5371 7.78692 11.2993 7.89376 10.8991 8.07982 10.2021 8.446 9.54316 8.99436 8.9948 9.54271 8.44644 10.2017 8.08027 10.8987 7.8942 11.2989 7.78736 11.5367 7.37633 11.4299 6.97613 11.323 6.57593 10.912 6.33812 10.5118 6.44495 9.56677 6.69722 8.67352 7.19431 7.9337 7.93414zM7.89376 13.1009C7.78692 12.7007 7.37589 12.4629 6.97569 12.5697 6.57549 12.6765 6.33767 13.0876 6.44451 13.4878 6.69678 14.4328 7.19387 15.326 7.9337 16.0659 8.67352 16.8057 9.56677 17.3028 10.5118 17.5551 10.912 17.6619 11.323 17.4241 11.4299 17.0239 11.5367 16.6237 11.2989 16.2126 10.8987 16.1058 10.2017 15.9197 9.54271 15.5536 8.99436 15.0052 8.446 14.4568 8.07982 13.7979 7.89376 13.1009zM13.1004 16.1058C12.7003 16.2126 12.4624 16.6237 12.5693 17.0239 12.6761 17.4241 13.0871 17.6619 13.4873 17.5551 14.4324 17.3028 15.3256 16.8057 16.0654 16.0659 16.8052 15.326 17.3023 14.4328 17.5546 13.4878 17.6614 13.0876 17.4236 12.6765 17.0234 12.5697 16.6232 12.4629 16.2122 12.7007 16.1054 13.1009 15.9193 13.7979 15.5531 14.4568 15.0048 15.0052 14.4564 15.5536 13.7975 15.9197 13.1004 16.1058z" class="colorECEFF1 svgShape"></path><path fill="#eceff1" fill-rule="evenodd" d="M15 5.75C15.4142 5.75 15.75 6.08579 15.75 6.5V11.5C15.75 11.9142 15.4142 12.25 15 12.25C14.5858 12.25 14.25 11.9142 14.25 11.5V6.5C14.25 6.08579 14.5858 5.75 15 5.75Z" clip-rule="evenodd" class="colorECEFF1 svgShape"></path><path fill="#eceff1" fill-rule="evenodd" d="M11.75 9C11.75 8.58579 12.0858 8.25 12.5 8.25H17.5C17.9142 8.25 18.25 8.58579 18.25 9C18.25 9.41421 17.9142 9.75 17.5 9.75H12.5C12.0858 9.75 11.75 9.41421 11.75 9Z" clip-rule="evenodd" class="colorECEFF1 svgShape"></path></svg></g></svg>